# xmcd
#
# Track frame offsets:
#	150
#	15155
#	28525
#	40020
#	52275
#	63325
#	89725
#	102085
#	123292
#	136025
#	151480
#	164980
#
# Disc length: 2434 seconds
# Revision: 0
# Processed by: cddbd v1.5.2PL0 Copyright (c) Steve Scherf et al.
# Submitted via: dBpowerAMP V12.0
#
DISCID=9a09800c
DTITLE=Various Artist - Blues Box, Vol. 4
DYEAR=1996
DGENRE=Blues
TTITLE0=Elmore James - It Hurts Me Too
TTITLE1=Roy Milton - Best Wishes
TTITLE2=Louis Jordan - Let The Good Times Roll
TTITLE3=Elmore James - Mean Mistreatin' Mama
TTITLE4=Jimmy Reed - Baby, What You Want Me To Do
TTITLE5=Joe Turner - Stormy Monday Blues
TTITLE6=John Lee Hooker - Crawlin' Black Spider
TTITLE7=Lightnin' Hopkins - I'm Gonna Meet My Baby Somewhere
TTITLE8=Elmore James - The Sky Is Crying
TTITLE9=B. B. King - How Blue Can You Get?
TTITLE10=John Lee Hooker - Trouble Blues
TTITLE11=Big Joe Turner - Piney Brown Blues
EXTD=
EXTT0=
EXTT1=
EXTT2=
EXTT3=
EXTT4=
EXTT5=
EXTT6=
EXTT7=
EXTT8=
EXTT9=
EXTT10=
EXTT11=
PLAYORDER=
